<svg width="172" height="97" viewBox="0 0 172 97" fill="none" xmlns="http://www.w3.org/2000/svg">
<path d="M92.7902 0.384333C94.457 0.44139 96.1239 0.49316 97.791 0.53952C101.842 0.653766 105.866 0.875396 109.918 1.09376C109.918 8.85284 109.918 16.6119 109.918 24.6061C106.172 24.6061 102.426 24.6061 98.567 24.6061C98.567 20.8604 98.567 17.1146 98.567 13.2553C90.5403 13.2553 82.5137 13.2553 74.2438 13.2553C74.2438 28.5059 74.2438 43.7565 74.2438 59.4693C72.3709 57.864 70.498 56.2586 68.5684 54.6047C67.9869 54.1326 67.4053 53.6605 66.8062 53.1742C64.0008 50.7124 62.5622 48.8683 62.0686 45.1159C61.9934 43.6763 61.9521 42.2346 61.9397 40.793C61.9208 40.0182 61.9019 39.2433 61.8825 38.445C61.8538 36.8091 61.8404 35.1728 61.8413 33.5367C61.829 31.0635 61.7262 28.6049 61.6183 26.1342C61.4496 18.267 61.9282 11.6355 67.4758 5.65118C74.7131 -1.09806 83.5248 -0.17144 92.7902 0.384333Z" fill="#E6EFF6"/>
<path d="M98.567 36.7677C102.313 36.7677 106.058 36.7677 109.918 36.7677C109.918 44.5268 109.918 52.2859 109.918 60.2801C102.159 60.2801 94.3996 60.2801 86.4054 60.2801C86.4054 56.5343 86.4054 52.7885 86.4054 48.9293C90.4187 48.9293 94.432 48.9293 98.567 48.9293C98.567 44.916 98.567 40.9026 98.567 36.7677Z" fill="#E6EFF6"/>
<path d="M149.646 70.8201C154.51 70.8201 154.51 70.8201 156.092 72.2213C156.536 72.8615 156.981 73.5017 157.44 74.1614C157.933 74.8527 158.425 75.5441 158.933 76.2564C159.678 77.353 159.678 77.353 160.439 78.4717C161.208 79.5637 161.208 79.5637 161.992 80.6776C162.937 82.0193 163.875 83.3659 164.804 84.7186C165.754 86.1643 165.754 86.1643 166.672 87.0355C166.939 81.6844 167.207 76.3333 167.483 70.8201C168.82 70.8201 170.158 70.8201 171.536 70.8201C171.536 79.1143 171.536 87.4085 171.536 95.954C167.483 95.954 167.483 95.954 165.896 94.494C165.399 93.822 164.903 93.1499 164.391 92.4576C163.568 91.3617 163.568 91.3617 162.729 90.2438C162.157 89.4526 161.585 88.6614 160.996 87.8463C160.383 87.0133 159.769 86.1803 159.137 85.3221C157.582 83.2 156.045 81.065 154.51 78.9278C154.243 84.5465 153.975 90.1651 153.699 95.954C152.362 95.954 151.024 95.954 149.646 95.954C149.646 87.6598 149.646 79.3656 149.646 70.8201Z" fill="#E6EFF6"/>
<path d="M121.269 70.8201C126.133 70.8201 126.133 70.8201 127.715 72.2213C128.159 72.8615 128.604 73.5017 129.063 74.1614C129.556 74.8527 130.048 75.5441 130.556 76.2564C131.301 77.353 131.301 77.353 132.062 78.4717C132.831 79.5637 132.831 79.5637 133.615 80.6776C134.56 82.0193 135.498 83.3659 136.427 84.7186C137.377 86.1643 137.377 86.1643 138.295 87.0355C138.562 81.6844 138.83 76.3333 139.106 70.8201C140.443 70.8201 141.781 70.8201 143.159 70.8201C143.159 79.1143 143.159 87.4085 143.159 95.954C139.106 95.954 139.106 95.954 137.519 94.494C137.022 93.822 136.526 93.1499 136.014 92.4576C135.191 91.3617 135.191 91.3617 134.352 90.2438C133.78 89.4526 133.208 88.6614 132.619 87.8463C132.006 87.0133 131.392 86.1803 130.76 85.3221C129.205 83.2 127.668 81.065 126.133 78.9278C125.866 84.5465 125.598 90.1651 125.322 95.954C123.985 95.954 122.647 95.954 121.269 95.954C121.269 87.6598 121.269 79.3656 121.269 70.8201Z" fill="#E6EFF6"/>
<path d="M41.0022 70.8201C43.2635 70.6237 43.2635 70.6237 45.8668 70.8201C47.406 72.1819 47.406 72.1819 48.6032 73.9618C49.0108 74.545 49.4184 75.1282 49.8383 75.7291C50.7314 77.3063 50.7314 77.3063 50.7314 78.9278C52.8199 76.8974 54.7154 74.9722 56.4068 72.5937C58.0284 70.8201 58.0284 70.8201 60.258 70.5667C61.161 70.6921 61.161 70.6921 62.0822 70.8201C60.9519 74.4373 58.957 76.8618 56.524 79.6879C55.4296 81.3246 55.4296 81.3246 55.6531 83.3015C56.5974 85.948 57.9834 87.8054 59.7006 90.0252C62.893 94.1714 62.893 94.1714 62.893 95.954C60.6507 96.2042 60.6507 96.2042 58.0284 95.954C56.3688 94.2089 56.3688 94.2089 54.988 91.9508C53.3253 88.9907 53.3253 88.9907 50.7314 87.0355C50.5475 87.4536 50.3636 87.8716 50.174 88.3024C49.2529 90.013 48.322 91.6763 47.2857 93.319C46.9805 93.8165 46.6753 94.314 46.3609 94.8265C44.401 96.52 42.6845 96.1331 40.1914 95.954C41.085 94.5341 41.9806 93.1155 42.8771 91.6975C43.3756 90.9073 43.8742 90.1172 44.3878 89.3031C45.8668 87.0355 45.8668 87.0355 47.3712 85.376C48.54 83.803 48.54 83.803 47.8241 81.8574C46.5535 79.5093 45.1946 77.264 43.7385 75.026C43.2264 74.2348 42.7143 73.4436 42.1867 72.6285C41.7958 72.0317 41.4049 71.435 41.0022 70.8201Z" fill="#E6EFF6"/>
<path d="M85.5946 72.4416C86.3973 72.9767 87.1999 73.5119 88.0269 74.0632C87.4918 75.1334 86.9567 76.2036 86.4054 77.3063C85.887 77.0387 85.3686 76.7712 84.8345 76.4955C81.4956 75.4052 78.5308 75.0938 75.0546 75.6847C72.4196 77.1036 72.4196 77.1036 71.0007 79.7386C70.4401 82.3007 70.4356 84.474 71.0007 87.0355C72.4709 89.6544 72.4709 89.6544 75.0546 91.0894C79.3327 91.5647 82.3762 91.0795 86.4054 89.4678C86.9405 90.2705 87.4756 91.0732 88.0269 91.9001C84.1076 95.1839 81.2743 96.3495 76.2042 96.2834C72.6161 95.6805 70.2039 93.6964 67.7576 91.0894C65.5398 87.2775 64.6338 84.1185 65.3253 79.7386C67.2312 76.0822 69.3777 73.7338 72.9263 71.6309C77.6817 70.319 81.2038 69.9541 85.5946 72.4416Z" fill="#E6EFF6"/>
<path d="M0.463623 70.8201C6.08227 70.8201 11.7009 70.8201 17.4898 70.8201C17.4898 72.1579 17.4898 73.4956 17.4898 74.8739C13.4765 74.8739 9.46319 74.8739 5.32825 74.8739C5.32825 77.0144 5.32825 79.1548 5.32825 81.3601C9.07401 81.3601 12.8198 81.3601 16.6791 81.3601C16.6791 82.6979 16.6791 84.0357 16.6791 85.414C12.6657 85.414 8.65241 85.414 4.51748 85.414C4.51748 88.8922 4.51748 92.3704 4.51748 95.954C3.17971 95.954 1.84193 95.954 0.463623 95.954C0.463623 87.6598 0.463623 79.3656 0.463623 70.8201Z" fill="#E6EFF6"/>
<path d="M86.4054 24.6061C90.4187 24.6061 94.432 24.6061 98.567 24.6061C98.567 28.6194 98.567 32.6328 98.567 36.7677C94.5536 36.7677 90.5403 36.7677 86.4054 36.7677C86.4054 32.7544 86.4054 28.7411 86.4054 24.6061Z" fill="#E6EFF6"/>
<path d="M32.0837 70.8201C33.4215 70.8201 34.7593 70.8201 36.1376 70.8201C36.1376 79.1143 36.1376 87.4085 36.1376 95.954C34.7998 95.954 33.462 95.954 32.0837 95.954C32.0837 87.6598 32.0837 79.3656 32.0837 70.8201Z" fill="#E6EFF6"/>
<path d="M21.5437 70.8201C22.8815 70.8201 24.2192 70.8201 25.5975 70.8201C25.5975 79.1143 25.5975 87.4085 25.5975 95.954C24.2598 95.954 22.922 95.954 21.5437 95.954C21.5437 87.6598 21.5437 79.3656 21.5437 70.8201Z" fill="#E6EFF6"/>
<path fill-rule="evenodd" clip-rule="evenodd" d="M116.404 78.117C114.296 74.5697 111.257 72.3996 107.485 70.8201C102.94 70.2229 99.6042 70.3178 95.8306 72.999C93.1114 75.3945 90.7418 77.6706 90.2312 81.4076C90.1584 86.3678 91.2309 89.0738 94.5131 92.7109C97.4062 95.2596 99.5921 96.1927 103.381 96.3594C108.565 96.1255 111.489 94.4254 115.137 90.684C116.966 86.5869 117.088 82.5403 116.404 78.117ZM112.35 79.7386C111.127 77.2922 109.813 76.3284 107.485 74.874C101.642 74.1171 97.4693 74.9949 94.5131 80.5494C94.1411 83.1951 94.4239 85.3356 95.3239 87.8463C97.5196 90.5361 98.6593 91.6821 102.076 92.1694C105.85 92.2363 107.999 92.132 110.83 89.4678C112.866 86.2099 112.8 83.4942 112.35 79.7386Z" fill="#E6EFF6"/>
</svg>
